<svg height="512" viewBox="0 0 48 56" width="512" xmlns="http://www.w3.org/2000/svg"><g id="Page-1" fill="none" fill-rule="evenodd"><g id="030---Baby-Book" fill="rgb(0,0,0)" fill-rule="nonzero"><path id="Shape" d="m3 50c-1.65685425 0-3 1.3431458-3 3s1.34314575 3 3 3h41v-6zm9 2h29c.5522847 0 1 .4477153 1 1s-.4477153 1-1 1h-29c-.5522847 0-1-.4477153-1-1s.4477153-1 1-1zm-3 1c0 .5522847-.44771525 1-1 1h-4c-.55228475 0-1-.4477153-1-1s.44771525-1 1-1h4c.55228475 0 1 .4477153 1 1z"/><path id="Shape" d="m6 48v-10h-3c-1.65685425 0-3 1.3431458-3 3v8.026c.86038886-.6618067 1.91453073-1.0223232 3-1.026z"/><path id="Shape" d="m46 50v6h1c.5522847 0 1-.4477153 1-1v-5.184c-.320257.1184378-.6585603.1806856-1 .184z"/><path id="Shape" d="m13 22c.0020567 1.4024502.9754878 2.6163321 2.344 2.923-.458648-1.9216792-.458648-3.9243208 0-5.846-1.3685122.3066679-2.3419433 1.5205498-2.344 2.923z"/><circle id="Oval" cx="23" cy="21" r="1"/><path id="Shape" d="m6 36v-2h-3c-1.65685425 0-3 1.3431458-3 3v.026c.86038886-.6618067 1.91453073-1.0223232 3-1.026z"/><path id="Shape" d="m6 12v-2h-3c-1.65685425 0-3 1.3431458-3 3v.026c.86038886-.6618067 1.91453073-1.0223232 3-1.026z"/><path id="Shape" d="m47 0h-39v48h39c.5522847 0 1-.4477153 1-1v-46c0-.55228475-.4477153-1-1-1zm-35 5h5c.5522847 0 1 .44771525 1 1s-.4477153 1-1 1h-5c-.5522847 0-1-.44771525-1-1s.4477153-1 1-1zm4 34c0-.5522847.4477153-1 1-1h4c.5522847 0 1 .4477153 1 1s-.4477153 1-1 1h-4c-.5522847 0-1-.4477153-1-1zm20 5h-16c-.5522847 0-1-.4477153-1-1s.4477153-1 1-1h16c.5522847 0 1 .4477153 1 1s-.4477153 1-1 1zm3-4h-14c-.5522847 0-1-.4477153-1-1s.4477153-1 1-1h14c.5522847 0 1 .4477153 1 1s-.4477153 1-1 1zm1-13c-2.0185043 4.8444102-6.7518889 8-12 8s-9.9814957-3.1555898-12-8c-2.7614237 0-5-2.2385763-5-5s2.2385763-5 5-5c2.0185043-4.8444102 6.7518889-8 12-8s9.9814957 3.1555898 12 8c2.7614237 0 5 2.2385763 5 5s-2.2385763 5-5 5zm4-20h-23c-.5522847 0-1-.44771525-1-1s.4477153-1 1-1h23c.5522847 0 1 .44771525 1 1s-.4477153 1-1 1z"/><path id="Shape" d="m6 32v-18h-3c-1.65685425 0-3 1.3431458-3 3v16.026c.86038886-.6618067 1.91453073-1.0223232 3-1.026z"/><path id="Shape" d="m6 8v-8h-3c-1.65685425 0-3 1.34314575-3 3v6.026c.86038886-.66180667 1.91453073-1.02232318 3-1.026z"/><circle id="Oval" cx="33" cy="21" r="1"/><path id="Shape" d="m40.656 19.077c.458648 1.9216792.458648 3.9243208 0 5.846 1.3688628-.3056925 2.3422397-1.5204191 2.3422397-2.923s-.9733769-2.6173075-2.3422397-2.923z"/><path id="Shape" d="m30.765 11.366c.1586246.5300666.2378182 1.0807149.235 1.634 0 3.164-1.962 4-3 4-.5522847 0-1-.4477153-1-1s.4477153-1 1-1c.143-.011 1-.16 1-2 0-1.816-.833-1.984-1.019-2-5.8307293-.0174383-10.6720074 4.4977858-11.0604953 10.3155849-.388488 5.817799 3.8094692 10.9366248 9.5907495 11.6945872s11.1568994-3.105707 12.281263-8.8270281c1.1243637-5.7213211-2.3893526-11.3319378-8.0275172-12.818144zm-10.765 9.634c0-1.6568542 1.3431458-3 3-3s3 1.3431458 3 3-1.3431458 3-3 3-3-1.3431458-3-3zm11.707 6.707c-1.0251587.8886624-2.35154 1.3513036-3.707 1.293-1.35546.0583036-2.6818413-.4043376-3.707-1.293-.3573625-.3924894-.3458038-.9958028.02633-1.374316.3721338-.3785133.9751636-.4003241 1.37367-.049684.658334.5075391 1.4769529.7619604 2.307.717.8278281.0431581 1.6437452-.21155 2.3-.718.3989756-.3752273 1.0248131-.3623371 1.408.029.3820036.3870944.3815578 1.0094533-.001 1.396zm1.293-3.707c-1.6568542 0-3-1.3431458-3-3s1.3431458-3 3-3 3 1.3431458 3 3-1.3431458 3-3 3z"/></g></g></svg>