<?xml version="1.0" encoding="iso-8859-1"?>
<!-- Generator: Adobe Illustrator 19.0.0, SVG Export Plug-In . SVG Version: 6.00 Build 0)  -->
<svg version="1.1" id="Layer_1" xmlns="http://www.w3.org/2000/svg" xmlns:xlink="http://www.w3.org/1999/xlink" x="0px" y="0px"
	 viewBox="0 0 512 512" style="enable-background:new 0 0 512 512;" xml:space="preserve">
<g>
	<g>
		<path d="M128,0H42.667c-17.643,0-32,14.357-32,32v448c0,17.643,14.357,32,32,32H128c17.643,0,32-14.357,32-32V32
			C160,14.357,145.643,0,128,0z M138.667,480c0,5.888-4.779,10.667-10.667,10.667H42.667C36.779,490.667,32,485.888,32,480V32
			c0-5.888,4.779-10.667,10.667-10.667H128c5.888,0,10.667,4.779,10.667,10.667V480z"/>
	</g>
</g>
<g>
	<g>
		<path d="M85.333,384c-17.643,0-32,14.357-32,32c0,17.643,14.357,32,32,32c17.643,0,32-14.357,32-32
			C117.333,398.357,102.976,384,85.333,384z M85.333,426.667c-5.888,0-10.667-4.779-10.667-10.667
			c0-5.888,4.779-10.667,10.667-10.667S96,410.112,96,416C96,421.888,91.221,426.667,85.333,426.667z"/>
	</g>
</g>
<g>
	<g>
		<path d="M106.667,128H64c-5.888,0-10.667,4.779-10.667,10.667S58.112,149.333,64,149.333h42.667
			c5.888,0,10.667-4.779,10.667-10.667S112.555,128,106.667,128z"/>
	</g>
</g>
<g>
	<g>
		<path d="M106.667,85.333H64c-5.888,0-10.667,4.779-10.667,10.667S58.112,106.667,64,106.667h42.667
			c5.888,0,10.667-4.779,10.667-10.667S112.555,85.333,106.667,85.333z"/>
	</g>
</g>
<g>
	<g>
		<path d="M106.667,42.667H64c-5.888,0-10.667,4.779-10.667,10.667S58.112,64,64,64h42.667c5.888,0,10.667-4.779,10.667-10.667
			S112.555,42.667,106.667,42.667z"/>
	</g>
</g>
<g>
	<g>
		<path d="M298.667,0h-85.333c-17.643,0-32,14.357-32,32v448c0,17.643,14.357,32,32,32h85.333c17.643,0,32-14.357,32-32V32
			C330.667,14.357,316.309,0,298.667,0z M309.333,480c0,5.888-4.779,10.667-10.667,10.667h-85.333
			c-5.888,0-10.667-4.779-10.667-10.667V32c0-5.888,4.779-10.667,10.667-10.667h85.333c5.888,0,10.667,4.779,10.667,10.667V480z"/>
	</g>
</g>
<g>
	<g>
		<path d="M256,384c-17.643,0-32,14.357-32,32c0,17.643,14.357,32,32,32s32-14.357,32-32C288,398.357,273.643,384,256,384z
			 M256,426.667c-5.888,0-10.667-4.779-10.667-10.667c0-5.888,4.779-10.667,10.667-10.667c5.888,0,10.667,4.779,10.667,10.667
			C266.667,421.888,261.888,426.667,256,426.667z"/>
	</g>
</g>
<g>
	<g>
		<path d="M277.333,128h-42.667c-5.888,0-10.667,4.779-10.667,10.667s4.779,10.667,10.667,10.667h42.667
			c5.888,0,10.667-4.779,10.667-10.667S283.221,128,277.333,128z"/>
	</g>
</g>
<g>
	<g>
		<path d="M277.333,85.333h-42.667C228.779,85.333,224,90.112,224,96s4.779,10.667,10.667,10.667h42.667
			c5.888,0,10.667-4.779,10.667-10.667S283.221,85.333,277.333,85.333z"/>
	</g>
</g>
<g>
	<g>
		<path d="M277.333,42.667h-42.667c-5.888,0-10.667,4.779-10.667,10.667S228.779,64,234.667,64h42.667
			C283.221,64,288,59.221,288,53.333S283.221,42.667,277.333,42.667z"/>
	</g>
</g>
<g>
	<g>
		<path d="M469.333,0H384c-17.643,0-32,14.357-32,32v448c0,17.643,14.357,32,32,32h85.333c17.643,0,32-14.357,32-32V32
			C501.333,14.357,486.976,0,469.333,0z M480,480c0,5.888-4.779,10.667-10.667,10.667H384c-5.888,0-10.667-4.779-10.667-10.667V32
			c0-5.888,4.779-10.667,10.667-10.667h85.333C475.221,21.333,480,26.112,480,32V480z"/>
	</g>
</g>
<g>
	<g>
		<path d="M426.667,384c-17.643,0-32,14.357-32,32c0,17.643,14.357,32,32,32s32-14.357,32-32
			C458.667,398.357,444.309,384,426.667,384z M426.667,426.667c-5.888,0-10.667-4.779-10.667-10.667
			c0-5.888,4.779-10.667,10.667-10.667s10.667,4.779,10.667,10.667C437.333,421.888,432.555,426.667,426.667,426.667z"/>
	</g>
</g>
<g>
	<g>
		<path d="M448,128h-42.667c-5.888,0-10.667,4.779-10.667,10.667s4.779,10.667,10.667,10.667H448
			c5.888,0,10.667-4.779,10.667-10.667S453.888,128,448,128z"/>
	</g>
</g>
<g>
	<g>
		<path d="M448,85.333h-42.667c-5.888,0-10.667,4.779-10.667,10.667s4.779,10.667,10.667,10.667H448
			c5.888,0,10.667-4.779,10.667-10.667S453.888,85.333,448,85.333z"/>
	</g>
</g>
<g>
	<g>
		<path d="M448,42.667h-42.667c-5.888,0-10.667,4.779-10.667,10.667S399.445,64,405.333,64H448c5.888,0,10.667-4.779,10.667-10.667
			S453.888,42.667,448,42.667z"/>
	</g>
</g>
<g>
</g>
<g>
</g>
<g>
</g>
<g>
</g>
<g>
</g>
<g>
</g>
<g>
</g>
<g>
</g>
<g>
</g>
<g>
</g>
<g>
</g>
<g>
</g>
<g>
</g>
<g>
</g>
<g>
</g>
</svg>
