<?xml version="1.0" encoding="iso-8859-1"?>
<!-- Generator: Adobe Illustrator 19.0.0, SVG Export Plug-In . SVG Version: 6.00 Build 0)  -->
<svg version="1.1" id="Layer_1" xmlns="http://www.w3.org/2000/svg" xmlns:xlink="http://www.w3.org/1999/xlink" x="0px" y="0px"
	 viewBox="0 0 512 512" style="enable-background:new 0 0 512 512;" xml:space="preserve">
<g>
	<g>
		<g>
			<path d="M72.22,123.728h43.524c4.703,0,8.516-3.812,8.516-8.516s-3.813-8.516-8.516-8.516H72.22
				c-4.703,0-8.516,3.812-8.516,8.516C63.704,119.915,67.517,123.728,72.22,123.728z"/>
			<path d="M93.983,361.764c-30.109,0-54.605,24.496-54.605,54.605c0,30.109,24.496,54.605,54.605,54.605
				c30.109,0,54.604-24.496,54.604-54.605C148.587,386.26,124.092,361.764,93.983,361.764z M93.983,453.943
				c-20.718,0-37.573-16.855-37.573-37.573s16.855-37.573,37.573-37.573c20.717,0,37.572,16.855,37.572,37.573
				C131.556,437.087,114.7,453.943,93.983,453.943z"/>
			<path d="M72.22,154.384h43.524c4.703,0,8.516-3.812,8.516-8.516c0-4.704-3.813-8.516-8.516-8.516H72.22
				c-4.703,0-8.516,3.812-8.516,8.516C63.704,150.572,67.517,154.384,72.22,154.384z"/>
			<path d="M93.983,387.879c-15.709,0-28.49,12.78-28.49,28.49c0,15.71,12.78,28.49,28.49,28.49c15.709,0,28.489-12.78,28.489-28.49
				C122.472,400.659,109.692,387.879,93.983,387.879z M93.983,427.828c-6.317,0-11.459-5.14-11.459-11.459
				s5.14-11.459,11.459-11.459c6.318,0,11.458,5.14,11.458,11.459C105.441,422.687,100.301,427.828,93.983,427.828z"/>
			<path d="M501.335,23.826H351.564C348.233,10.17,335.902,0,321.233,0H200.011C191.07,0,183,3.783,177.303,9.827
				C171.605,3.783,163.536,0,154.594,0H33.373C16.156,0,2.149,14.008,2.149,31.224v449.552C2.149,497.992,16.156,512,33.373,512
				h121.222c8.941,0,17.011-3.783,22.708-9.827c5.698,6.044,13.767,9.827,22.708,9.827h121.221
				c14.666,0,26.995-10.167,30.329-23.819h149.772c4.704,0,8.516-3.812,8.516-8.516V32.341
				C509.851,27.638,506.039,23.826,501.335,23.826z M168.788,480.776h-0.001c0,7.826-6.366,14.193-14.193,14.193H33.373
				c-7.826,0-14.193-6.366-14.193-14.193V31.224c0-7.826,6.366-14.193,14.193-14.193h121.222c7.826,0,14.193,6.366,14.193,14.193
				V480.776z M335.426,480.776c0,7.826-6.366,14.193-14.193,14.193H200.011c-7.826,0-14.193-6.366-14.193-14.193V31.224
				c0-7.826,6.366-14.193,14.193-14.193h121.222c7.826,0,14.193,6.366,14.193,14.193V480.776z M492.819,471.149H352.457v-34.642
				h1.344c4.704,0,8.516-3.812,8.516-8.516c0-4.704-3.812-8.516-8.516-8.516h-1.344v-19.739h95.289c4.703,0,8.516-3.813,8.516-8.516
				c0-4.704-3.813-8.516-8.516-8.516h-95.289v-56.51h95.289c4.703,0,8.516-3.812,8.516-8.516c0-4.704-3.813-8.516-8.516-8.516
				h-95.289v-56.509h95.289c4.703,0,8.516-3.812,8.516-8.516c0-4.704-3.813-8.516-8.516-8.516h-95.289v-19.742h13.925
				c4.704,0,8.516-3.812,8.516-8.516c0-4.704-3.812-8.516-8.516-8.516h-13.925v-19.742h95.289c4.703,0,8.516-3.812,8.516-8.516
				s-3.813-8.516-8.516-8.516h-95.289v-56.51h95.289c4.703,0,8.516-3.812,8.516-8.516s-3.813-8.516-8.516-8.516h-95.289v-47.68
				h140.362V471.149z"/>
			<path d="M260.622,361.764c-30.109,0-54.604,24.496-54.604,54.605c0,30.109,24.494,54.605,54.604,54.605
				c30.109,0,54.604-24.496,54.604-54.605C315.226,386.26,290.731,361.764,260.622,361.764z M260.622,453.943
				c-20.718,0-37.572-16.855-37.572-37.573s16.854-37.573,37.572-37.573c20.717,0,37.572,16.855,37.572,37.573
				S281.339,453.943,260.622,453.943z"/>
			<path d="M238.859,154.384h43.524c4.704,0,8.516-3.812,8.516-8.516c0-4.704-3.812-8.516-8.516-8.516h-43.524
				c-4.703,0-8.516,3.812-8.516,8.516C230.343,150.572,234.156,154.384,238.859,154.384z"/>
			<path d="M143.382,49.044H44.583c-4.703,0-8.516,3.812-8.516,8.516v187.97c0,4.704,3.813,8.516,8.516,8.516h98.8
				c4.703,0,8.516-3.812,8.516-8.516V57.56C151.898,52.857,148.085,49.044,143.382,49.044z M134.868,237.015h-0.001H53.099V66.076
				h81.768V237.015z"/>
			<path d="M238.859,123.728h43.524c4.704,0,8.516-3.812,8.516-8.516s-3.812-8.516-8.516-8.516h-43.524
				c-4.703,0-8.516,3.812-8.516,8.516C230.343,119.915,234.156,123.728,238.859,123.728z"/>
			<path d="M310.021,49.044h-98.8c-4.703,0-8.516,3.812-8.516,8.516v187.97c0,4.704,3.813,8.516,8.516,8.516h98.8
				c4.704,0,8.516-3.812,8.516-8.516V57.56C318.537,52.857,314.725,49.044,310.021,49.044z M301.505,237.015h-81.768V66.076h81.768
				V237.015z"/>
			<path d="M447.747,198.852h-57.252c-4.704,0-8.516,3.812-8.516,8.516c0,4.704,3.812,8.516,8.516,8.516h57.252
				c4.703,0,8.516-3.812,8.516-8.516C456.262,202.664,452.449,198.852,447.747,198.852z"/>
			<path d="M260.622,387.879c-15.709,0-28.489,12.78-28.489,28.49c0,15.71,12.78,28.49,28.489,28.49s28.489-12.78,28.489-28.49
				C289.111,400.659,276.331,387.879,260.622,387.879z M260.622,427.828c-6.318,0-11.458-5.14-11.458-11.459
				s5.14-11.459,11.458-11.459c6.317,0,11.458,5.14,11.458,11.459C272.08,422.687,266.94,427.828,260.622,427.828z"/>
			<path d="M447.747,345.936h-81.364c-4.704,0-8.516,3.812-8.516,8.516s3.812,8.516,8.516,8.516h81.364
				c4.703,0,8.516-3.812,8.516-8.516S452.449,345.936,447.747,345.936z"/>
		</g>
	</g>
</g>
<g>
</g>
<g>
</g>
<g>
</g>
<g>
</g>
<g>
</g>
<g>
</g>
<g>
</g>
<g>
</g>
<g>
</g>
<g>
</g>
<g>
</g>
<g>
</g>
<g>
</g>
<g>
</g>
<g>
</g>
</svg>
