<?xml version="1.0" encoding="iso-8859-1"?>
<!-- Generator: Adobe Illustrator 16.0.0, SVG Export Plug-In . SVG Version: 6.00 Build 0)  -->
<!DOCTYPE svg PUBLIC "-//W3C//DTD SVG 1.1//EN" "http://www.w3.org/Graphics/SVG/1.1/DTD/svg11.dtd">
<svg version="1.1" id="Capa_1" xmlns="http://www.w3.org/2000/svg" xmlns:xlink="http://www.w3.org/1999/xlink" x="0px" y="0px"
	 width="44.788px" height="44.787px" viewBox="0 0 44.788 44.787" style="enable-background:new 0 0 44.788 44.787;"
	 xml:space="preserve">
<g>
	<path d="M40.841,16.659h-8.769c-2.18,0-3.946-1.767-3.946-3.945V3.946C28.126,1.767,26.36,0,24.182,0h-3.577
		c-2.18,0-3.945,1.767-3.945,3.946v8.768c0,2.179-1.767,3.945-3.946,3.945H3.945C1.766,16.659,0,18.426,0,20.605v3.577
		c0,2.178,1.766,3.945,3.945,3.945h8.769c2.18,0,3.946,1.768,3.946,3.945v8.77c0,2.178,1.766,3.945,3.945,3.945h3.577
		c2.18,0,3.944-1.768,3.944-3.945v-8.77c0-2.18,1.767-3.945,3.946-3.945h8.769c2.181,0,3.945-1.768,3.945-3.945v-3.577
		C44.788,18.425,43.022,16.659,40.841,16.659z"/>
</g>
<g>
</g>
<g>
</g>
<g>
</g>
<g>
</g>
<g>
</g>
<g>
</g>
<g>
</g>
<g>
</g>
<g>
</g>
<g>
</g>
<g>
</g>
<g>
</g>
<g>
</g>
<g>
</g>
<g>
</g>
</svg>
