<svg height="467pt" viewBox="0 -18 467.46 467" width="467pt" xmlns="http://www.w3.org/2000/svg"><path d="m268.980469 307.574219c0 18.835937-15.269531 34.105469-34.105469 34.105469s-34.101562-15.269532-34.101562-34.105469c0-18.835938 15.265624-34.105469 34.101562-34.105469s34.105469 15.269531 34.105469 34.105469zm0 0"/><path d="m167.8125 430.230469h131.835938c-3.042969-33-31.445313-60.1875-65.917969-60.1875-34.472657 0-62.875 27.1875-65.917969 60.1875zm0 0"/><path d="m436.792969 307.574219c0 18.835937-15.269531 34.105469-34.105469 34.105469s-34.101562-15.269532-34.101562-34.105469c0-18.835938 15.265624-34.105469 34.101562-34.105469s34.105469 15.269531 34.105469 34.105469zm0 0"/><path d="m335.628906 430.230469h131.832032c-3.042969-33-31.445313-60.1875-65.917969-60.1875-34.476563 0-62.875 27.1875-65.914063 60.1875zm0 0"/><path d="m100.722656 302.113281c3.019532 18.589844-9.609375 36.109375-28.199218 39.125-18.59375 3.019531-36.109376-9.609375-39.125-28.199219-3.019532-18.59375 9.605468-36.109374 28.199218-39.128906 18.59375-3.015625 36.109375 9.609375 39.125 28.203125zm0 0"/><path d="m65.917969 370.042969c-34.472657 0-62.875 27.1875-65.917969 60.1875h131.828125c-3.035156-33-31.4375-60.1875-65.910156-60.1875zm0 0"/><path d="m75.730469 232.230469h316c7.730469 0 14-6.269531 14-14v-204c0-7.734375-6.269531-14-14-14h-316c-7.734375 0-14 6.265625-14 14v204c0 7.730469 6.265625 14 14 14zm97.148437-34h-12.226562c-3.3125 0-6-2.6875-6-6s2.6875-6 6-6h12.226562c3.3125 0 6 2.6875 6 6s-2.6875 6-6 6zm133.929688 0h-111.636719c-3.3125 0-6-2.6875-6-6s2.6875-6 6-6h111.636719c3.3125 0 6 2.6875 6 6s-2.6875 6-6 6zm-162.078125-148c0-8.835938 7.164062-16 16-16h146c8.835937 0 16 7.164062 16 16v100c0 8.835937-7.164063 16-16 16h-146c-8.835938 0-16-7.164063-16-16zm0 0"/><path d="m220.730469 83.652344v32.78125l22.1875-16.390625zm0 0"/><path d="m160.730469 154.230469h146c2.207031 0 4-1.792969 4-4v-100c0-2.210938-1.792969-4-4-4h-146c-2.210938 0-4 1.789062-4 4v100c0 2.207031 1.789062 4 4 4zm48-82.472657c-.035157-2.246093 1.207031-4.320312 3.210937-5.34375 2-1.027343 4.410156-.824218 6.210938.519532l38.285156 28.285156c1.535156 1.128906 2.4375 2.917969 2.4375 4.820312.003906 1.90625-.898438 3.695313-2.429688 4.828126l-38.273437 28.285156c-1.027344.761718-2.269531 1.175781-3.550781 1.175781-.925782 0-1.839844-.222656-2.664063-.644531-2.003906-1.027344-3.253906-3.101563-3.226562-5.355469zm0 0"/></svg>