<?xml version="1.0"?>
<svg xmlns="http://www.w3.org/2000/svg" viewBox="0 0 512 512" width="512" height="512"><g id="Contact_List" data-name="Contact List"><g id="Glyph"><path d="M480,400H464V304h16a16,16,0,0,1,16,16v64A16,16,0,0,1,480,400Z"/><path d="M392,480H88a8,8,0,0,1,0-16H392a8,8,0,0,1,0,16Z"/><path d="M352,0H88A56,56,0,0,0,32,56V430.813a4,4,0,0,0,7.584,1.764C47.056,417.231,61.374,400,88,400H352a32,32,0,0,0,32-32V32A32,32,0,0,0,352,0ZM158.659,102.375a64.3,64.3,0,0,1,96.976-.607A61.774,61.774,0,0,1,267.069,121.1a62.087,62.087,0,0,0-24.333-8.939l-.046-.005a23.855,23.855,0,0,0-12.374,1.89h0C225.047,116.345,214.328,120,208,120s-17.042-3.653-22.256-5.933h0a24.019,24.019,0,0,0-10.43-2.058H175.3a56.248,56.248,0,0,0-27.5,8.977A61.647,61.647,0,0,1,158.659,102.375Zm-13.081,44.478c9.093-18.035,29.333-18.825,30.191-18.85h0a8.01,8.01,0,0,1,3.48.686h0C179.409,128.761,195.9,136,208,136s28.591-7.239,28.756-7.312l1.993-.883,2.17.248c.746.087,18.375,2.277,28.016,16.572l1.711,2.537-.419,3.031c-.217,1.567-.456,2.961-.728,4.264l-8.339,38.52-.113.356C253.727,216.461,232.171,232,207.407,232s-46.318-15.539-53.639-38.667l-.193-.722-8.248-38.1c-.2-.952-.351-1.857-.5-2.76l-.422-2.57ZM320,320a16,16,0,0,1-16,16H112a16,16,0,0,1-16-16V282.233a40.1,40.1,0,0,1,32.156-39.222l34.2-6.84A11.408,11.408,0,0,1,176,247.358V248a32.013,32.013,0,0,0,32.623,31.994C226.158,279.662,240,264.9,240,247.358a11.408,11.408,0,0,1,13.646-11.187l34.2,6.84A40.1,40.1,0,0,1,320,282.233Z"/><path d="M400,32a16,16,0,0,1,16,16v64a16,16,0,0,1-16,16V368a48.053,48.053,0,0,1-48,48H88c-22.056,0-40,25.944-40,48,0,0-1,48,48,48H384a64,64,0,0,0,64-64V56a40,40,0,0,0-40-40h-8Zm16,224V160h0a16,16,0,0,1,16,16v64a16,16,0,0,1-16,16Z"/></g></g></svg>
