<?xml version="1.0" encoding="iso-8859-1"?>
<!-- Generator: Adobe Illustrator 19.0.0, SVG Export Plug-In . SVG Version: 6.00 Build 0)  -->
<svg version="1.1" id="Capa_1" xmlns="http://www.w3.org/2000/svg" xmlns:xlink="http://www.w3.org/1999/xlink" x="0px" y="0px"
	 viewBox="0 0 512 512" style="enable-background:new 0 0 512 512;" xml:space="preserve">
<g>
	<g>
		<path d="M502.857,64H9.143C4.093,64,0,68.093,0,73.143v365.714C0,443.907,4.093,448,9.143,448h493.714
			c5.049,0,9.143-4.093,9.143-9.143V73.143C512,68.093,507.907,64,502.857,64z M162.112,289.664l-128,137.143
			c-2.206,2.475-5.58,3.562-8.816,2.84c-3.236-0.722-5.828-3.14-6.773-6.319c-0.945-3.179-0.094-6.619,2.222-8.992l128-137.143
			c2.206-2.475,5.58-3.562,8.816-2.84c3.236,0.722,5.828,3.14,6.773,6.319C165.279,283.851,164.428,287.291,162.112,289.664z
			 M490.807,427.255c-3.692,3.442-9.475,3.242-12.919-0.448l-128-137.143c-2.316-2.373-3.167-5.813-2.222-8.992
			c0.945-3.179,3.536-5.596,6.773-6.319c3.236-0.722,6.61,0.364,8.816,2.84l128,137.143
			C494.697,418.028,494.497,423.811,490.807,427.255z M490.45,98.432L279.525,275.611c-6.583,5.547-14.916,8.588-23.525,8.585
			c-8.609,0.003-16.941-3.038-23.525-8.585L21.55,98.432c-2.502-2.1-3.694-5.376-3.126-8.593c0.568-3.217,2.809-5.887,5.879-7.003
			c3.07-1.117,6.503-0.511,9.005,1.589l210.926,177.189c6.802,5.719,16.731,5.719,23.534,0L478.693,84.425
			c3.868-3.247,9.635-2.743,12.882,1.125C494.822,89.418,494.318,95.185,490.45,98.432z"/>
	</g>
</g>
<g>
</g>
<g>
</g>
<g>
</g>
<g>
</g>
<g>
</g>
<g>
</g>
<g>
</g>
<g>
</g>
<g>
</g>
<g>
</g>
<g>
</g>
<g>
</g>
<g>
</g>
<g>
</g>
<g>
</g>
</svg>
