<svg height="403pt" viewBox="0 -1 403.8 403" width="403pt" xmlns="http://www.w3.org/2000/svg"><path d="m201.898438 264.898438 74-77.296876c40.902343-42.601562 40.902343-112.101562 0-155.101562-19.699219-20.699219-46-32.101562-74-32.101562s-54.296876 11.402343-74 32.101562c-40.898438 42.601562-40.898438 112.199219 0 155.101562zm0-225.898438c30.597656 0 55.402343 24.804688 55.402343 55.398438 0 30.597656-24.804687 55.402343-55.402343 55.402343-30.59375 0-55.398438-24.804687-55.398438-55.402343.03125-30.582032 24.816406-55.367188 55.398438-55.398438zm0 0"/><path d="m241.300781 94.398438c0 21.761718-17.640625 39.402343-39.402343 39.402343-21.757813 0-39.398438-17.640625-39.398438-39.402343 0-21.757813 17.640625-39.398438 39.398438-39.398438 21.761718 0 39.402343 17.640625 39.402343 39.398438zm0 0"/><path d="m137.101562 361.101562c7.398438 4 29.699219 9.5 64.796876 9.5 35.101562 0 57.402343-5.5 64.800781-9.5-7.398438-4-29.699219-9.5-64.800781-9.5-35.097657 0-57.398438 5.5-64.796876 9.5zm0 0"/><path d="m348.5 334.199219c-39.101562-9.097657-91.101562-14.199219-146.601562-14.199219s-107.5 5-146.597657 14.199219c-43.699219 10.199219-55.300781 22.101562-55.300781 26.902343 0 4.796876 11.601562 16.699219 55.300781 26.898438 39.097657 9.101562 91.097657 14.199219 146.597657 14.199219s107.5-5 146.601562-14.199219c43.699219-10.199219 55.300781-22.101562 55.300781-26.898438 0-4.800781-11.601562-16.703124-55.300781-26.902343zm-91.898438 47.101562c-14.703124 3.398438-34.101562 5.300781-54.703124 5.300781-20.597657 0-40-1.902343-54.699219-5.300781-7.597657-1.800781-13.699219-3.902343-18.097657-6.300781-8.300781-4.601562-10-10-10-13.800781 0-13.597657 21.097657-18.5 28.097657-20.199219 14.699219-3.398438 34.101562-5.300781 54.699219-5.300781 20.601562 0 40 1.902343 54.703124 5.300781 7.597657 1.800781 13.699219 3.898438 18.097657 6.300781 8.300781 4.597657 10 10 10 13.800781 0 13.597657-21.199219 18.5-28.097657 20.199219zm0 0"/></svg>