<svg id="Layer_1" enable-background="new 0 0 511.448 511.448" height="512" viewBox="0 0 511.448 511.448" width="512" xmlns="http://www.w3.org/2000/svg"><path d="m436.507 74.941c-99.913-99.913-261.64-99.927-361.567 0-99.913 99.913-99.927 261.64 0 361.567 99.913 99.913 261.639 99.928 361.567 0 99.914-99.912 99.93-261.64 0-361.567zm-39.485 197.036-117.333 96c-13.695 11.208-34.298 1.419-34.298-16.253v-51.685l-83.036 67.938c-13.569 11.103-34.298 1.538-34.298-16.253v-192c0-17.682 20.607-27.456 34.298-16.253l83.036 67.938v-51.685c0-17.682 20.606-27.455 34.298-16.253l117.333 96c10.3 8.427 10.23 24.136 0 32.506z"/></svg>